<?xml version="1.0" encoding="utf-8"?><svg xml:space="preserve" viewBox="0 0 100 100" y="0px" x="0px" xmlns:xlink="http://www.w3.org/1999/xlink" xmlns="http://www.w3.org/2000/svg" id="圖層_1" version="1.1" width="203px" height="203px" style="width:100%;height:100%;background-color:rgb(255, 255, 255);animation-play-state:paused" ><g class="ldl-scale" style="transform-origin:50% 50% 0px;transform:rotate(0deg) scale(0.8);animation-play-state:paused" ><path d="M80.1,26.4c-5,0-9.8-2-13.3-5.6 c-4.3-4.4-10.2-7.1-16.8-7.1s-12.5,2.7-16.8,7.1c-3.5,3.6-8.3,5.6-13.3,5.6h0c-3.2,0-5.6,2.8-5.1,5.9L20.5,72 c0.8,5.7,4.9,10.4,10.5,11.7c12.5,3,25.2,3,38,0c5.6-1.3,9.7-6,10.6-11.7l5.7-39.7C85.7,29.2,83.2,26.4,80.1,26.4L80.1,26.4z" stroke-miterlimit="10" stroke-width="3" stroke="#000000" fill="none" style="stroke:rgb(0, 0, 0);animation-play-state:paused" ></path>
<g style="animation-play-state:paused" ><path d="M72.3,60.5c0,4.3-7.4,6.7-22.3,6.7 s-22.3-2.4-22.3-6.7s7.4-6.7,22.3-6.7S72.3,56.2,72.3,60.5z" stroke-miterlimit="10" stroke-width="3" stroke="#000000" fill="none" style="stroke:rgb(0, 0, 0);animation-play-state:paused" ></path>
<path d="M74.6,37.5l-2.7,17.9c-0.1,0.9-1,1.3-1.3,1.5" stroke-miterlimit="10" stroke-linejoin="round" stroke-linecap="round" stroke-width="3" stroke="#000000" fill="none" style="stroke:rgb(0, 0, 0);animation-play-state:paused" ></path>
<path d="M25.4,37.5l2.7,17.9c0.1,0.9,1,1.3,1.3,1.5" stroke-miterlimit="10" stroke-linejoin="round" stroke-linecap="round" stroke-width="3" stroke="#000000" fill="none" style="stroke:rgb(0, 0, 0);animation-play-state:paused" ></path></g>
<g style="animation-play-state:paused" ><line y2="88.6" x2="28.1" y1="83" x1="28.1" stroke-miterlimit="10" stroke-linejoin="round" stroke-linecap="round" stroke-width="3" stroke="#000000" fill="none" style="stroke:rgb(0, 0, 0);animation-play-state:paused" ></line>
<line y2="88.6" x2="71.9" y1="83" x1="71.9" stroke-miterlimit="10" stroke-linejoin="round" stroke-linecap="round" stroke-width="3" stroke="#000000" fill="none" style="stroke:rgb(0, 0, 0);animation-play-state:paused" ></line></g>
<metadata xmlns:d="https://loading.io/stock/" style="animation-play-state:paused" ><d:name style="animation-play-state:paused" >couch</d:name>


<d:tags style="animation-play-state:paused" >chair,sofa,living room,lounge,armchair,wing chair</d:tags>


<d:license style="animation-play-state:paused" >by</d:license>


<d:slug style="animation-play-state:paused" >2jzai2</d:slug></metadata></g><!-- generated by https://loading.io/ --></svg>