<?xml version="1.0" encoding="utf-8"?><svg xml:space="preserve" viewBox="0 0 100 100" y="0" x="0" xmlns="http://www.w3.org/2000/svg" id="Layer_1" version="1.1" width="47px" height="47px" xmlns:xlink="http://www.w3.org/1999/xlink" style="width:100%;height:100%;animation-play-state:paused" ><g class="ldl-scale" style="transform-origin:50% 50% 0px;transform:rotate(0deg) scale(0.8);animation-play-state:paused" ><g style="animation-play-state:paused" ><path d="M45 48h10v31H45z" stroke="#333" fill="#e0e0e0" stroke-miterlimit="10" stroke-width="3.5" style="stroke:rgb(51, 51, 51);fill:rgb(224, 224, 224);animation-play-state:paused" ></path>
<path stroke-miterlimit="10" stroke-linejoin="round" stroke-width="3.5" stroke="#333" fill="#e0e0e0" d="M70 85H30l.457-1.702A8.508 8.508 0 0 1 38.672 77h22.655a8.507 8.507 0 0 1 8.215 6.298L70 85z" style="stroke:rgb(51, 51, 51);fill:rgb(224, 224, 224);animation-play-state:paused" ></path>
<path stroke-miterlimit="10" stroke-width="3.5" stroke="#000" opacity=".2" d="M52 48v37h18l-.457-1.702A8.508 8.508 0 0 0 61.328 77H55V48h-3z" style="stroke:rgb(0, 0, 0);animation-play-state:paused" ></path></g>
<path stroke-miterlimit="10" stroke-width="3.5" stroke="#333" fill="#666" d="M79.333 63H20.667A4.666 4.666 0 0 1 16 58.333V23.667A4.666 4.666 0 0 1 20.667 19h58.667A4.666 4.666 0 0 1 84 23.667v34.667A4.666 4.666 0 0 1 79.333 63z" style="stroke:rgb(51, 51, 51);fill:rgb(102, 102, 102);animation-play-state:paused" ></path>
<path stroke-miterlimit="10" stroke="#fff" stroke-linecap="round" stroke-width="3.5" fill="none" d="M21 30.125v-3.459A2.667 2.667 0 0 1 23.667 24H25" style="stroke:rgb(255, 255, 255);animation-play-state:paused" ></path>
<path d="M21 36.75v-1.125" stroke-miterlimit="10" stroke="#fff" stroke-linecap="round" stroke-width="3.5" fill="none" style="stroke:rgb(255, 255, 255);animation-play-state:paused" ></path>
<g style="animation-play-state:paused" ><path d="M60.075 28.625L67.6 41l-7.525 12.375" stroke-width="3.5" stroke="#fff" fill="none" stroke-miterlimit="10" style="stroke:rgb(255, 255, 255);animation-play-state:paused" ></path>
<path d="M39.925 53.375L32.4 41l7.525-12.375" stroke-width="3.5" stroke="#fff" fill="none" stroke-miterlimit="10" style="stroke:rgb(255, 255, 255);animation-play-state:paused" ></path>
<path d="M54.808 24.5l-9.616 33" stroke-width="3.5" stroke="#fff" fill="none" stroke-miterlimit="10" style="stroke:rgb(255, 255, 255);animation-play-state:paused" ></path></g>
<path stroke-miterlimit="10" stroke-width="3.5" stroke="#000" opacity=".2" d="M79.333 19h-12.3l-12.48 44h24.779A4.667 4.667 0 0 0 84 58.333V23.667A4.666 4.666 0 0 0 79.333 19z" style="stroke:rgb(0, 0, 0);animation-play-state:paused" ></path>
<metadata xmlns:d="https://loading.io/stock/" style="animation-play-state:paused" ><d:name style="animation-play-state:paused" >html</d:name>


<d:tags style="animation-play-state:paused" >html,developer,code,frontend,web,engineer,coding,hack,software</d:tags>


<d:license style="animation-play-state:paused" >by</d:license>


<d:slug style="animation-play-state:paused" >61hyfl</d:slug></metadata></g><!-- generated by https://loading.io/ --></svg>